:version 1.10
:name ASF
:units
  mass 1
  length 1
  angle deg
:documentation
  ASF file generated by Kaydara
:root
  axis xyz
  order  tx ty tz rx ry rz
  position 0 0 0
  orientation 0 0 0
:bonedata
  begin
    id 1
    name lfemurDummy
    direction 0.61522 -0.761478 0.204097
    length 5.68318
    axis 0 -0 0 xyz
  end
  begin
    id 2
    name lfemur
    direction 0.34202 -0.939693 -5.84747e-008
    length 16.9147
    axis 0 -0 20 xyz
    dof rx ry rz
    limits( -inf , inf )
( -inf , inf )
( -inf , inf )

  end
  begin
    id 3
    name ltibia
    direction 0.34202 -0.939693 1.20839e-009
    length 18.0532
    axis 0 -0 20 xyz
    dof rz ry rx
    limits( -inf , inf )
( -inf , inf )
( -inf , inf )

  end
  begin
    id 4
    name lfoot
    direction 0.0841971 -0.23133 0.969225
    length 5.23822
    axis -90 7.62852e-016 20 xyz
    dof ry rx rz
    limits( -inf , inf )
( -inf , inf )
( -inf , inf )

  end
  begin
    id 5
    name ltoes
    direction 0 0 0
    length 0
    axis 0 0 0 xyz
    dof rz ry rx
    limits( -inf , inf )
( -inf , inf )
( -inf , inf )

  end
  begin
    id 6
    name rfemurDummy
    direction -0.625247 -0.75382 0.202044
    length 5.74091
    axis 0 -0 0 xyz
  end
  begin
    id 7
    name rfemur
    direction -0.34202 -0.939693 -1.47013e-008
    length 16.4922
    axis 0 -0 -20 xyz
    dof rx ry rz
    limits( -inf , inf )
( -inf , inf )
( -inf , inf )

  end
  begin
    id 8
    name rtibia
    direction -0.34202 -0.939693 -7.74345e-010
    length 18.2421
    axis 0 -0 -20 xyz
    dof rz ry rx
    limits( -inf , inf )
( -inf , inf )
( -inf , inf )

  end
  begin
    id 9
    name rfoot
    direction -0.124331 -0.341598 0.931586
    length 5.45787
    axis -90 -7.62852e-016 -20 xyz
    dof ry rx rz
    limits( -inf , inf )
( -inf , inf )
( -inf , inf )

  end
  begin
    id 10
    name rtoes
    direction 0 0 0
    length 0
    axis 0 0 0 xyz
    dof rz ry rx
    limits( -inf , inf )
( -inf , inf )
( -inf , inf )

  end
  begin
    id 11
    name lowerbackDummy
    direction 0 0 0
    length 0
    axis 0 -0 0 xyz
  end
  begin
    id 12
    name lowerback
    direction -0.0218484 0.994884 -0.0986304
    length 4.45607
    axis 0 -0 0 xyz
    dof rx ry rz
    limits( -inf , inf )
( -inf , inf )
( -inf , inf )

  end
  begin
    id 13
    name upperback
    direction -0.00973057 0.999717 -0.0217111
    length 4.47449
    axis 0 -0 0 xyz
    dof rx ry rz
    limits( -inf , inf )
( -inf , inf )
( -inf , inf )

  end
  begin
    id 14
    name thorax
    direction -0.000928171 0.999699 0.0245198
    length 4.50973
    axis 0 -0 0 xyz
    dof rx ry rz
    limits( -inf , inf )
( -inf , inf )
( -inf , inf )

  end
  begin
    id 15
    name rclavicle
    direction -0.9009 0.425937 -0.0834055
    length 7.28587
    axis 0 -0 0 xyz
    dof rx ry rz
    limits( -inf , inf )
( -inf , inf )
( -inf , inf )

  end
  begin
    id 16
    name rhumerus
    direction -1 -2.23604e-007 -1.42637e-007
    length 13.5704
    axis 180 30 90 xyz
    dof rx ry rz
    limits( -inf , inf )
( -inf , inf )
( -inf , inf )

  end
  begin
    id 17
    name rradius
    direction -1 5.68281e-008 -4.4952e-007
    length 8.06782
    axis 180 30 90 xyz
    dof rz ry rx
    limits( -inf , inf )
( -inf , inf )
( -inf , inf )

  end
  begin
    id 18
    name rwrist
    direction -1 1.51393e-007 1.38143e-007
    length 4.03391
    axis -90 -90 0 xyz
    dof rz rx ry
    limits( -inf , inf )
( -inf , inf )
( -inf , inf )

  end
  begin
    id 19
    name rthumb
    direction 0 0 0
    length 0
    axis 0 0 0 xyz
    dof ry rx rz
    limits( -inf , inf )
( -inf , inf )
( -inf , inf )

  end
  begin
    id 20
    name rhand
    direction -1 -3.34077e-007 -5.59631e-007
    length 1.29744
    axis -90 -90 0 xyz
    dof ry rx rz
    limits( -inf , inf )
( -inf , inf )
( -inf , inf )

  end
  begin
    id 21
    name rfingers
    direction 0 0 0
    length 0
    axis 0 0 0 xyz
    dof rz ry rx
    limits( -inf , inf )
( -inf , inf )
( -inf , inf )

  end
  begin
    id 22
    name lclavicle
    direction 0.940017 0.332249 -0.0773232
    length 8.29589
    axis 0 -0 0 xyz
    dof rx ry rz
    limits( -inf , inf )
( -inf , inf )
( -inf , inf )

  end
  begin
    id 23
    name lhumerus
    direction 1 7.41158e-008 -1.44768e-008
    length 12.0042
    axis 180 -30 -90 xyz
    dof rx ry rz
    limits( -inf , inf )
( -inf , inf )
( -inf , inf )

  end
  begin
    id 24
    name lradius
    direction 1 -1.32972e-007 3.10821e-007
    length 8.1902
    axis 180 -30 -90 xyz
    dof rz ry rx
    limits( -inf , inf )
( -inf , inf )
( -inf , inf )

  end
  begin
    id 25
    name lwrist
    direction 1 3.08957e-007 4.01394e-007
    length 4.09509
    axis -90 90 0 xyz
    dof rz rx ry
    limits( -inf , inf )
( -inf , inf )
( -inf , inf )

  end
  begin
    id 26
    name lthumb
    direction 0 0 0
    length 0
    axis 0 0 0 xyz
    dof ry rx rz
    limits( -inf , inf )
( -inf , inf )
( -inf , inf )

  end
  begin
    id 27
    name lhand
    direction 1 -1.64125e-007 -6.99514e-007
    length 1.37229
    axis -90 90 0 xyz
    dof ry rx rz
    limits( -inf , inf )
( -inf , inf )
( -inf , inf )

  end
  begin
    id 28
    name lfingers
    direction 0 0 0
    length 0
    axis 0 0 0 xyz
    dof rz ry rx
    limits( -inf , inf )
( -inf , inf )
( -inf , inf )

  end
  begin
    id 29
    name lowerneck
    direction -0.030798 0.998024 0.0547665
    length 3.93918
    axis 0 -0 0 xyz
    dof rx ry rz
    limits( -inf , inf )
( -inf , inf )
( -inf , inf )

  end
  begin
    id 30
    name upperneck
    direction 0.0531588 0.996611 -0.0627736
    length 3.95491
    axis 0 -0 0 xyz
    dof rx ry rz
    limits( -inf , inf )
( -inf , inf )
( -inf , inf )

  end
  begin
    id 31
    name head
    direction 0 0 0
    length 0
    axis 0 0 0 xyz
    dof rx ry rz
    limits( -inf , inf )
( -inf , inf )
( -inf , inf )

  end
:hierarchy
  begin
    root lfemurDummy rfemurDummy lowerbackDummy
    lfemurDummy lfemur
    lfemur ltibia
    ltibia lfoot
    lfoot ltoes
    rfemurDummy rfemur
    rfemur rtibia
    rtibia rfoot
    rfoot rtoes
    lowerbackDummy lowerback
    lowerback upperback
    upperback thorax
    thorax rclavicle lclavicle lowerneck
    rclavicle rhumerus
    rhumerus rradius
    rradius rwrist
    rwrist rthumb rhand
    rhand rfingers
    lclavicle lhumerus
    lhumerus lradius
    lradius lwrist
    lwrist lthumb lhand
    lhand lfingers
    lowerneck upperneck
    upperneck head
  end

:SAMPLES-PER-SECOND 30
:FULLY-SPECIFIED
:DEGREES
19
root  10.66464477 39.50711048 -9.891088741 -8.108449936 -49.07229996 8.112500191
lowerback  9.971790314 1.910490036 -2.547950029
upperback  3.909199953 2.20953989 -0.6870779991
thorax  -1.593309999 1.049519897 0.4747090042
lowerneck  1.167060018 6.390299797 -5.806540012
upperneck  12.05930042 7.840410233 7.885709763
head  3.148560047 3.870419979 3.811589956
lclavicle  0 -9.442270133e-015 7.951389973e-016
lhumerus  17.92900085 -6.647119999 64.93699646
lradius  2.61740507e-031 -2.370239383e-031 137.8370056
lwrist  -7.062250077e-031 -1.765562519e-031 13.64729977
lhand  -1.496451383e-031 -27.76390076 20.11240005
lfingers  90 7.125020027 -90
lthumb  89.89689403 5.08795885 91.16245106
rclavicle  0 -9.442270133e-015 7.951389973e-016
rhumerus  13.09500027 13.31340027 -75.9897995
rradius  -2.822268856e-031 2.122178725e-031 143.0590057
rwrist  7.062250077e-031 1.765562519e-031 -23.19079971
rhand  -7.920061211e-032 -33.2840004 9.303460121
rfingers  -90 -7.125020027 -90
rthumb  -92.93752616 -24.25625642 -97.11982154
rfemur  -16.54940033 12.32180023 2.399919987
rtibia  -0 0 57.25350189
rfoot  -4.571987491e-032 -15.11069965 3.026429892
rtoes  5.373923086 19.29304026 -105.8922705
lfemur  -23.37350082 -5.217619896 -7.177229881
ltibia  -0 0 44.81729889
lfoot  4.425789368e-032 -4.199560165 3.94652009
ltoes  -4.250644065 -19.5611806 -102.515957
20
root  10.6606889 39.6779999 -10.01462185 -7.497429848 -49.18009949 7.6729002
lowerback  9.927969933 1.889170051 -2.28392005
upperback  3.850080013 2.208489895 -0.6639620066
thorax  -1.622089982 1.050532222 0.3511280119
lowerneck  1.332440019 6.393189907 -5.913219929
upperneck  12.33349991 7.832900047 7.761740208
head  3.214590073 3.851480007 3.791769981
lclavicle  0 -9.442270133e-015 7.951389973e-016
lhumerus  17.96349907 -6.588620186 64.98110199
lradius  2.622280841e-031 -2.364844018e-031 137.9550018
lwrist  -7.062250077e-031 -0 13.66530037
lhand  -1.496451383e-031 -27.76390076 20.11240005
lfingers  90 7.125020027 -90
lthumb  89.89689403 5.08795885 91.16245106
rclavicle  0 -9.442270133e-015 7.951389973e-016
rhumerus  13.80109978 12.90380001 -75.63839722
rradius  -2.829106259e-031 2.11305509e-031 143.2440033
rwrist  7.062250077e-031 -8.827812596e-032 -23.25219917
rhand  -7.920061211e-032 -33.2840004 9.303460121
rfingers  -90 -7.125020027 -90
rthumb  -92.93752616 -24.25625642 -97.11982154
rfemur  -16.6317997 12.08759975 2.43088007
rtibia  -0 0 56.25
rfoot  -4.552664639e-032 -14.18220043 4.273190022
rtoes  5.373923086 19.29304026 -105.8922705
lfemur  -23.25099945 -5.552929878 -6.81317997
ltibia  -0 0 44.17169952
lfoot  4.425840754e-032 -4.208610058 2.98477006
ltoes  -4.250644065 -19.5611806 -102.515957
21
root  10.65744415 39.81755474 -10.13880001 -6.816989899 -49.27099991 7.172520161
lowerback  9.852410316 1.853279948 -2.06972003
upperback  3.751110077 2.187180042 -0.550104022
thorax  -1.6796 1.053769946 0.3515839875
lowerneck  1.572399974 6.429699898 -6.107800007
upperneck  12.60270023 7.872290134 7.595270157
head  3.260080099 3.848680019 3.768929958
lclavicle  0 -9.442270133e-015 7.951389973e-016
lhumerus  18.06150055 -6.413330078 65.1914978
lradius  2.630313803e-031 -2.355906054e-031 138.1499939
lwrist  0 -1.765562519e-031 13.6196003
lhand  -1.496451383e-031 -27.76390076 20.11240005
lfingers  90 7.125020027 -90
lthumb  89.89689403 5.08795885 91.16245106
rclavicle  0 -9.442270133e-015 7.951389973e-016
rhumerus  14.58180046 12.50249958 -75.18299866
rradius  -2.835473705e-031 2.104503007e-031 143.4170074
rwrist  7.062250077e-031 -8.827812596e-032 -23.39570045
rhand  -7.920061211e-032 -33.2840004 9.303460121
rfingers  -90 -7.125020027 -90
rthumb  -92.93752616 -24.25625642 -97.11982154
rfemur  -16.68490028 11.94839954 2.557179928
rtibia  -0 0 55.24810028
rfoot  -4.541529708e-032 -13.61520004 5.252789974
rtoes  5.373923086 19.29304026 -105.8922705
lfemur  -23.21360016 -5.895969868 -6.44133997
ltibia  -0 0 43.78969955
lfoot  4.427027096e-032 -4.412340164 1.919260025
ltoes  -4.250644065 -19.5611806 -102.515957
22
root  10.64935519 39.93755551 -10.26413309 -6.227169991 -49.43180084 6.732699871
lowerback  9.731869698 1.84465003 -1.872089982
upperback  3.675990105 2.199120045 -0.5191019773
thorax  -1.685700059 1.062090039 0.2739210129
lowerneck  1.776129961 6.515289783 -6.135749817
upperneck  12.92590046 7.961110115 7.551420212
head  3.328799963 3.881550074 3.762589931
lclavicle  0 -9.442270133e-015 7.951389973e-016
lhumerus  18.32349968 -6.295020103 65.12779999
lradius  2.64015932e-031 -2.344867332e-031 138.3899994
lwrist  -7.062250077e-031 -0 13.64369965
lhand  -1.496451383e-031 -27.76390076 20.11240005
lfingers  90 7.125020027 -90
lthumb  89.89689403 5.08795885 91.16245106
rclavicle  0 -9.442270133e-015 7.951389973e-016
rhumerus  15.38910007 12.09959984 -74.85790253
rradius  -2.840607484e-031 2.097568392e-031 143.5570068
rwrist  7.062250077e-031 1.324171889e-031 -23.60350037
rhand  -7.920061211e-032 -33.2840004 9.303460121
rfingers  -90 -7.125020027 -90
rthumb  -92.93752616 -24.25625642 -97.11982154
rfemur  -16.66990089 12.06890011 2.717289925
rtibia  -0 0 54.26129913
rfoot  -4.53739057e-032 -13.39770031 6.19370985
rtoes  5.373923086 19.29304026 -105.8922705
lfemur  -23.13529968 -6.172609806 -6.164259911
ltibia  -0 0 43.7057991
lfoot  5.535667031e-032 -4.658110142 0.8309220076
ltoes  -4.250644065 -19.5611806 -102.515957
23
root  10.63573342 40.03755464 -10.38033343 -5.733019829 -49.58509827 6.357120037
lowerback  9.513050079 1.842120051 -1.657490015
upperback  3.681770086 2.220390081 -0.5685899854
thorax  -1.550250053 1.073850036 0.1075460017
lowerneck  1.819120049 6.548309803 -6.001100063
upperneck  13.25469971 7.988130093 7.487410069
head  3.441590071 3.893170118 3.728859901
lclavicle  0 -9.442270133e-015 7.951389973e-016
lhumerus  18.6012001 -6.206950188 64.91809845
lradius  2.646574633e-031 -2.337624167e-031 138.5469971
lwrist  -7.062250077e-031 -0 13.60519981
lhand  -1.496451383e-031 -27.76390076 20.11240005
lfingers  90 7.125020027 -90
lthumb  89.89689403 5.08795885 91.16245106
rclavicle  0 -9.442270133e-015 7.951389973e-016
rhumerus  16.21050072 11.62679958 -74.63439941
rradius  -2.846672739e-031 2.089329642e-031 143.7230072
rwrist  7.062250077e-031 8.827812596e-032 -23.92210007
rhand  -7.920061211e-032 -33.2840004 9.303460121
rfingers  -90 -7.125020027 -90
rthumb  -92.93752616 -24.25625642 -97.11982154
rfemur  -16.54089928 12.27970028 2.874130011
rtibia  -0 0 53.34000015
rfoot  -0 -13.56089973 7.130410194
rtoes  5.373923086 19.29304026 -105.8922705
lfemur  -23.03300095 -6.342520237 -6.02421999
ltibia  -0 0 43.94419861
lfoot  4.706912826e-032 -4.890729904 -0.307581991
ltoes  -4.250644065 -19.5611806 -102.515957
24
root  10.62702194 40.10977858 -10.49433355 -5.238890171 -49.66320038 6.008090019
lowerback  9.23085022 1.781340003 -1.462790012
upperback  3.741070032 2.16347003 -0.6016899943
thorax  -1.324890018 1.045899987 -0.01932010055
lowerneck  1.753579974 6.565139771 -6.005559921
upperneck  13.50940037 8.010180473 7.395830154
head  3.545680046 3.897459984 3.713249922
lclavicle  0 -9.442270133e-015 7.951389973e-016
lhumerus  18.85589981 -5.944169998 64.85340118
lradius  2.650161739e-031 -2.333556684e-031 138.6349945
lwrist  -1.412450015e-030 -0 13.54959965
lhand  -1.496451383e-031 -27.76390076 20.11240005
lfingers  90 7.125020027 -90
lthumb  89.89689403 5.08795885 91.16245106
rclavicle  0 -9.442270133e-015 7.951389973e-016
rhumerus  17.16740036 11.19219971 -74.36959839
rradius  -2.850824132e-031 2.083661634e-031 143.8370056
rwrist  7.062250077e-031 8.827812596e-032 -24.12109947
rhand  -7.920061211e-032 -33.2840004 9.303460121
rfingers  -90 -7.125020027 -90
rthumb  -92.93752616 -24.25625642 -97.11982154
rfemur  -16.41390038 12.51819992 3.061609983
rtibia  -0 0 52.5298996
rfoot  -0 -14.19219971 7.627399921
rtoes  5.373923086 19.29304026 -105.8922705
lfemur  -23.07410049 -6.339009762 -5.953849792
ltibia  -0 0 44.51819992
lfoot  4.430956609e-032 -5.027989864 -1.284559965
ltoes  -4.250644065 -19.5611806 -102.515957
25
root  10.61344447 40.15333221 -10.60815571 -4.944039822 -49.78440094 5.844629765
lowerback  9.007940292 1.746060014 -1.436210036
upperback  3.757810116 2.124010086 -0.6263719797
thorax  -1.182850003 1.026219964 -0.04827519879
lowerneck  1.66249001 6.619140148 -6.0865798
upperneck  14.27490044 8.017230034 7.636670113
head  3.397320032 3.927030087 3.476860046
lclavicle  0 -9.442270133e-015 7.951389973e-016
lhumerus  19.01720047 -5.718540192 64.83390045
lradius  2.650202755e-031 -2.333510102e-031 138.6360016
lwrist  -1.412450015e-030 -0 13.49790001
lhand  -1.496451383e-031 -27.76390076 20.11240005
lfingers  90 7.125020027 -90
lthumb  89.89689403 5.08795885 91.16245106
rclavicle  0 -9.442270133e-015 7.951389973e-016
rhumerus  17.98500061 10.8760004 -73.97499847
rradius  -2.853222238e-031 2.080376625e-031 143.9029999
rwrist  1.412450015e-030 2.648343779e-031 -24.19070053
rhand  -7.920061211e-032 -33.2840004 9.303460121
rfingers  -90 -7.125020027 -90
rthumb  -92.93752616 -24.25625642 -97.11982154
rfemur  -16.22800064 13.00529957 3.182960033
rtibia  -0 0 51.87879944
rfoot  -0 -15.16800022 7.301229954
rtoes  5.373923086 19.29304026 -105.8922705
lfemur  -23.10750008 -5.984479904 -6.069709778
ltibia  -0 0 45.4396019
lfoot  4.431514098e-032 -5.109260082 -1.978410006
ltoes  -4.250644065 -19.5611806 -102.515957
